<svg id="visual" viewBox="0 0 960 540" width="960" height="540" xmlns="http://www.w3.org/2000/svg" xmlns:xlink="http://www.w3.org/1999/xlink" version="1.1"><g stroke-width="1" stroke-linejoin="bevel"><path d="M460 276L401 296L485 359Z" fill="#0d1621" stroke="#0d1621"></path><path d="M401 296L373 392L485 359Z" fill="#1c2430" stroke="#1c2430"></path><path d="M485 359L560 289L460 276Z" fill="#000718" stroke="#000718"></path><path d="M373 392L457 481L485 359Z" fill="#000718" stroke="#000718"></path><path d="M485 359L612 361L560 289Z" fill="#18202c" stroke="#18202c"></path><path d="M373 392L403 477L457 481Z" fill="#151c29" stroke="#151c29"></path><path d="M560 289L513 171L460 276Z" fill="#1f2734" stroke="#1f2734"></path><path d="M460 276L416 152L401 296Z" fill="#0d1621" stroke="#0d1621"></path><path d="M577 451L612 361L485 359Z" fill="#151c29" stroke="#151c29"></path><path d="M560 289L567 145L513 171Z" fill="#1f2734" stroke="#1f2734"></path><path d="M513 171L416 152L460 276Z" fill="#111925" stroke="#111925"></path><path d="M401 296L258 361L373 392Z" fill="#030d1b" stroke="#030d1b"></path><path d="M457 481L577 451L485 359Z" fill="#111925" stroke="#111925"></path><path d="M416 152L286 231L401 296Z" fill="#000718" stroke="#000718"></path><path d="M373 392L312 488L403 477Z" fill="#111925" stroke="#111925"></path><path d="M286 231L258 361L401 296Z" fill="#000000" stroke="#000000"></path><path d="M258 361L312 488L373 392Z" fill="#0d1621" stroke="#0d1621"></path><path d="M405 540L458 540L457 481Z" fill="#232b38" stroke="#232b38"></path><path d="M405 540L457 481L403 477Z" fill="#151c29" stroke="#151c29"></path><path d="M457 481L564 540L577 451Z" fill="#030d1b" stroke="#030d1b"></path><path d="M312 488L405 540L403 477Z" fill="#000000" stroke="#000000"></path><path d="M651 198L567 145L560 289Z" fill="#000000" stroke="#000000"></path><path d="M513 171L473 108L416 152Z" fill="#09121e" stroke="#09121e"></path><path d="M567 145L473 108L513 171Z" fill="#1f2734" stroke="#1f2734"></path><path d="M416 152L346 106L286 231Z" fill="#1f2734" stroke="#1f2734"></path><path d="M577 451L669 388L612 361Z" fill="#18202c" stroke="#18202c"></path><path d="M704 302L651 198L560 289Z" fill="#09121e" stroke="#09121e"></path><path d="M695 442L669 388L577 451Z" fill="#232b38" stroke="#232b38"></path><path d="M473 108L346 106L416 152Z" fill="#030d1b" stroke="#030d1b"></path><path d="M346 106L254 177L286 231Z" fill="#18202c" stroke="#18202c"></path><path d="M286 231L164 299L258 361Z" fill="#111925" stroke="#111925"></path><path d="M704 302L560 289L612 361Z" fill="#18202c" stroke="#18202c"></path><path d="M458 540L564 540L457 481Z" fill="#232b38" stroke="#232b38"></path><path d="M162 540L308 540L312 488Z" fill="#000000" stroke="#000000"></path><path d="M312 488L308 540L405 540Z" fill="#111925" stroke="#111925"></path><path d="M254 177L210 213L286 231Z" fill="#030d1b" stroke="#030d1b"></path><path d="M258 361L154 489L312 488Z" fill="#1c2430" stroke="#1c2430"></path><path d="M669 388L704 302L612 361Z" fill="#0d1621" stroke="#0d1621"></path><path d="M660 115L591 97L567 145Z" fill="#1c2430" stroke="#1c2430"></path><path d="M567 145L591 97L473 108Z" fill="#1f2734" stroke="#1f2734"></path><path d="M317 0L311 84L346 106Z" fill="#030d1b" stroke="#030d1b"></path><path d="M418 0L346 106L473 108Z" fill="#18202c" stroke="#18202c"></path><path d="M346 106L311 84L254 177Z" fill="#151c29" stroke="#151c29"></path><path d="M254 177L133 85L210 213Z" fill="#000718" stroke="#000718"></path><path d="M700 540L695 442L577 451Z" fill="#09121e" stroke="#09121e"></path><path d="M778 370L745 284L704 302Z" fill="#000718" stroke="#000718"></path><path d="M164 299L163 326L258 361Z" fill="#000000" stroke="#000000"></path><path d="M210 213L164 299L286 231Z" fill="#1c2430" stroke="#1c2430"></path><path d="M651 198L660 115L567 145Z" fill="#000718" stroke="#000718"></path><path d="M785 207L660 115L651 198Z" fill="#000718" stroke="#000718"></path><path d="M778 370L704 302L669 388Z" fill="#1f2734" stroke="#1f2734"></path><path d="M704 302L745 284L651 198Z" fill="#1c2430" stroke="#1c2430"></path><path d="M559 0L473 108L591 97Z" fill="#111925" stroke="#111925"></path><path d="M559 0L465 0L473 108Z" fill="#1f2734" stroke="#1f2734"></path><path d="M465 0L418 0L473 108Z" fill="#232b38" stroke="#232b38"></path><path d="M58 279L117 339L164 299Z" fill="#1c2430" stroke="#1c2430"></path><path d="M164 299L117 339L163 326Z" fill="#151c29" stroke="#151c29"></path><path d="M163 326L154 489L258 361Z" fill="#000000" stroke="#000000"></path><path d="M117 339L154 489L163 326Z" fill="#0d1621" stroke="#0d1621"></path><path d="M564 540L700 540L577 451Z" fill="#1c2430" stroke="#1c2430"></path><path d="M695 442L778 370L669 388Z" fill="#000000" stroke="#000000"></path><path d="M700 540L755 449L695 442Z" fill="#151c29" stroke="#151c29"></path><path d="M755 449L778 370L695 442Z" fill="#0d1621" stroke="#0d1621"></path><path d="M649 0L559 0L591 97Z" fill="#09121e" stroke="#09121e"></path><path d="M418 0L317 0L346 106Z" fill="#09121e" stroke="#09121e"></path><path d="M311 84L160 54L254 177Z" fill="#0d1621" stroke="#0d1621"></path><path d="M210 213L58 279L164 299Z" fill="#232b38" stroke="#232b38"></path><path d="M76 540L162 540L154 489Z" fill="#18202c" stroke="#18202c"></path><path d="M154 489L162 540L312 488Z" fill="#000000" stroke="#000000"></path><path d="M745 284L785 207L651 198Z" fill="#0d1621" stroke="#0d1621"></path><path d="M660 115L649 0L591 97Z" fill="#000718" stroke="#000718"></path><path d="M826 308L785 207L745 284Z" fill="#151c29" stroke="#151c29"></path><path d="M825 361L826 308L778 370Z" fill="#232b38" stroke="#232b38"></path><path d="M778 370L826 308L745 284Z" fill="#0d1621" stroke="#0d1621"></path><path d="M857 432L825 361L778 370Z" fill="#1f2734" stroke="#1f2734"></path><path d="M857 432L778 370L755 449Z" fill="#0d1621" stroke="#0d1621"></path><path d="M117 339L78 443L154 489Z" fill="#151c29" stroke="#151c29"></path><path d="M762 91L649 0L660 115Z" fill="#18202c" stroke="#18202c"></path><path d="M71 146L58 279L210 213Z" fill="#09121e" stroke="#09121e"></path><path d="M117 339L0 376L78 443Z" fill="#0d1621" stroke="#0d1621"></path><path d="M317 0L160 54L311 84Z" fill="#1c2430" stroke="#1c2430"></path><path d="M160 54L133 85L254 177Z" fill="#030d1b" stroke="#030d1b"></path><path d="M868 170L762 91L785 207Z" fill="#000000" stroke="#000000"></path><path d="M785 207L762 91L660 115Z" fill="#1f2734" stroke="#1f2734"></path><path d="M700 540L781 540L755 449Z" fill="#09121e" stroke="#09121e"></path><path d="M0 115L71 146L56 0Z" fill="#030d1b" stroke="#030d1b"></path><path d="M133 85L71 146L210 213Z" fill="#18202c" stroke="#18202c"></path><path d="M0 479L76 540L78 443Z" fill="#111925" stroke="#111925"></path><path d="M78 443L76 540L154 489Z" fill="#030d1b" stroke="#030d1b"></path><path d="M825 361L960 365L826 308Z" fill="#000718" stroke="#000718"></path><path d="M781 540L857 432L755 449Z" fill="#151c29" stroke="#151c29"></path><path d="M317 0L155 0L160 54Z" fill="#1c2430" stroke="#1c2430"></path><path d="M160 54L56 0L133 85Z" fill="#111925" stroke="#111925"></path><path d="M0 167L0 300L58 279Z" fill="#000000" stroke="#000000"></path><path d="M58 279L0 376L117 339Z" fill="#232b38" stroke="#232b38"></path><path d="M0 300L0 376L58 279Z" fill="#09121e" stroke="#09121e"></path><path d="M826 308L868 170L785 207Z" fill="#1c2430" stroke="#1c2430"></path><path d="M762 91L792 0L649 0Z" fill="#18202c" stroke="#18202c"></path><path d="M960 236L868 170L826 308Z" fill="#0d1621" stroke="#0d1621"></path><path d="M0 376L0 479L78 443Z" fill="#18202c" stroke="#18202c"></path><path d="M71 146L0 167L58 279Z" fill="#09121e" stroke="#09121e"></path><path d="M0 115L0 167L71 146Z" fill="#18202c" stroke="#18202c"></path><path d="M866 56L792 0L762 91Z" fill="#09121e" stroke="#09121e"></path><path d="M56 0L71 146L133 85Z" fill="#09121e" stroke="#09121e"></path><path d="M0 479L0 540L76 540Z" fill="#18202c" stroke="#18202c"></path><path d="M781 540L891 540L857 432Z" fill="#151c29" stroke="#151c29"></path><path d="M857 432L960 365L825 361Z" fill="#09121e" stroke="#09121e"></path><path d="M960 85L866 56L868 170Z" fill="#232b38" stroke="#232b38"></path><path d="M868 170L866 56L762 91Z" fill="#09121e" stroke="#09121e"></path><path d="M155 0L56 0L160 54Z" fill="#151c29" stroke="#151c29"></path><path d="M960 460L960 365L857 432Z" fill="#18202c" stroke="#18202c"></path><path d="M960 365L960 236L826 308Z" fill="#000000" stroke="#000000"></path><path d="M960 236L960 219L868 170Z" fill="#232b38" stroke="#232b38"></path><path d="M891 540L960 460L857 432Z" fill="#111925" stroke="#111925"></path><path d="M960 0L868 0L866 56Z" fill="#000718" stroke="#000718"></path><path d="M866 56L868 0L792 0Z" fill="#18202c" stroke="#18202c"></path><path d="M56 0L0 0L0 115Z" fill="#18202c" stroke="#18202c"></path><path d="M891 540L960 540L960 460Z" fill="#030d1b" stroke="#030d1b"></path><path d="M960 219L960 85L868 170Z" fill="#030d1b" stroke="#030d1b"></path><path d="M960 85L960 0L866 56Z" fill="#111925" stroke="#111925"></path></g></svg>